<svg width="511" height="511" viewBox="0 0 511 511" fill="none" xmlns="http://www.w3.org/2000/svg">
<circle cx="255.5" cy="255.5" r="250.5" fill="#989898" stroke="black" stroke-width="10"/>
<g clip-path="url(#clip0_3:21)">
<path d="M346.867 167.86V161.243C346.867 134.582 322.084 114.359 296.079 121.173C280.404 90.912 238.533 92.1652 223.921 121.629C198.674 115.173 173.521 134.423 173.521 161.355V238.462C161.318 233.922 147.034 235.364 135.551 243.885C117.597 257.21 113.659 282.602 126.652 300.832L200.026 403.789C201.836 406.328 204.227 408.399 206.999 409.827C209.772 411.255 212.846 412 215.966 412H352.291C361.406 412 369.315 405.711 371.362 396.832L389.823 316.773C391.933 307.617 392.998 298.252 393 288.856V208.428C393 183.595 371.274 164.417 346.867 167.86ZM363.641 288.856C363.641 296.027 362.825 303.203 361.216 310.183L344.504 382.656H221.008L150.554 283.806C141.723 271.415 159.742 257.656 168.531 269.987L185.123 293.266C190.624 300.985 202.878 297.109 202.878 287.591V161.355C202.878 145.678 225.245 146.188 225.245 161.778V255.5C225.245 260.902 229.626 265.281 235.031 265.281H239.224C244.629 265.281 249.01 260.902 249.01 255.5V139.959C249.01 124.27 271.377 124.792 271.377 140.381V255.5C271.377 260.902 275.758 265.281 281.163 265.281H285.356C290.761 265.281 295.142 260.902 295.142 255.5V160.82C295.142 145.126 317.508 145.653 317.508 161.243V255.5C317.508 260.902 321.889 265.281 327.294 265.281H331.488C336.893 265.281 341.273 260.902 341.273 255.5V208.85C341.273 192.808 363.64 193.176 363.64 208.428V288.856H363.641Z" fill="black"/>
</g>
<defs>
<clipPath id="clip0_3:21">
<rect width="274" height="313" fill="white" transform="translate(119 99)"/>
</clipPath>
</defs>
</svg>
