<svg width="511" height="511" viewBox="0 0 511 511" fill="none" xmlns="http://www.w3.org/2000/svg">
<circle cx="255.5" cy="255.5" r="250.5" fill="#989898" stroke="black" stroke-width="10"/>
<path d="M351.54 149.408C337.539 128.221 310.222 122.987 289.782 134.665C271.361 114.997 240.316 115.232 222.073 134.651C192.598 117.764 154.129 137.811 152.904 172.655C124.029 165.879 96 187.501 96 217.143V252.739C96 273.202 104.925 292.71 120.488 306.26L181.556 359.436C184.214 361.749 183.5 362.919 183.5 380C183.5 391.046 192.454 400 203.5 400H361C372.046 400 381 391.046 381 380C381 365.304 380.366 360.784 383.489 353.519L410.261 291.234C414.069 282.373 416 273.001 416 263.379V191.852C416 158.828 382.054 136.438 351.54 149.408V149.408ZM386 263.379C386.004 268.884 384.881 274.332 382.699 279.387L355.927 341.671C352.658 349.278 351 357.321 351 365.578V370H213.5V363.571C213.5 353.34 209.038 343.586 201.256 336.811L140.187 283.636C131.171 275.784 126 264.522 126 252.738V217.142C126 196.387 158.5 196.182 158.5 217.566V243.333C158.5 244.763 158.806 246.175 159.399 247.476C159.991 248.777 160.855 249.936 161.933 250.875L166.308 254.684C167.755 255.945 169.535 256.762 171.434 257.038C173.333 257.315 175.271 257.039 177.018 256.244C178.765 255.449 180.246 254.168 181.284 252.554C182.323 250.941 182.875 249.062 182.875 247.143V174.286C182.875 153.6 215.375 153.208 215.375 174.709V191.428C215.375 196.951 219.852 201.428 225.375 201.428H229.75C235.273 201.428 239.75 196.951 239.75 191.428V165.714C239.75 145.005 272.25 144.667 272.25 166.137V191.428C272.25 196.951 276.727 201.428 282.25 201.428H286.625C292.148 201.428 296.625 196.951 296.625 191.428V174.285C296.625 153.641 329.125 153.173 329.125 174.708V191.428C329.125 196.95 333.602 201.427 339.125 201.427H343.5C349.023 201.427 353.5 196.95 353.5 191.428C353.5 170.711 386 170.419 386 191.851V263.379V263.379Z" fill="black"/>
</svg>
