<svg width="511" height="511" viewBox="0 0 511 511" fill="none" xmlns="http://www.w3.org/2000/svg">
<circle cx="255.5" cy="255.5" r="250.5" fill="#989898" stroke="black" stroke-width="10"/>
<path d="M255.5 374.063L292.551 374.056C295.258 374.056 297.966 373.747 300.598 373.14L363.583 358.623C379.652 354.92 391 340.727 391 324.455V215.578C391 202.957 384.103 191.256 373.001 185.043L321.131 156.009C302.918 145.814 285.529 152.927 272.32 169.1L195.61 139.588C175.557 131.872 152.942 141.561 144.987 161.396C136.996 181.32 146.911 203.935 167.187 211.738L208.922 221.625L159.168 216.787C137.571 216.787 120 234.153 120 255.499C120 276.846 137.571 294.213 159.168 294.213H205.553C203.608 308.104 210.154 321.364 221.612 328.62C214.563 351.164 231.705 374.063 255.5 374.063ZM255.5 348.649C242.183 348.649 242.204 329.295 255.5 329.295C260.177 329.295 263.969 325.503 263.969 320.826V317.197C263.969 312.52 260.177 308.728 255.5 308.728H240.68C227.363 308.728 227.383 289.373 240.68 289.373H255.5C260.177 289.373 263.969 285.582 263.969 280.905V277.276C263.969 272.598 260.177 268.807 255.5 268.807H159.168C140.944 268.807 140.973 242.193 159.168 242.193H255.5C260.177 242.193 263.969 238.402 263.969 233.725V227.568C263.969 225.856 263.45 224.185 262.481 222.774C261.512 221.363 260.139 220.279 258.541 219.664L176.311 188.02C159.611 181.594 169.202 156.642 186.486 163.293L274.639 197.216C276.304 197.856 278.128 197.955 279.852 197.498C281.576 197.04 283.112 196.05 284.24 194.669L295.76 180.565C298.84 176.793 304.413 175.767 308.721 178.179L360.592 207.213C363.677 208.94 365.594 212.145 365.594 215.578V324.455C365.594 328.949 362.421 332.82 357.879 333.867L294.892 348.384C294.124 348.561 293.339 348.65 292.551 348.65H255.5V348.649Z" fill="black"/>
</svg>
